<svg width="140" height="140" viewBox="0 0 140 140" fill="none" xmlns="http://www.w3.org/2000/svg">
<path d="M78.0625 104.938C78.0625 106.532 77.5897 108.091 76.7038 109.417C75.8178 110.743 74.5586 111.776 73.0854 112.386C71.6122 112.997 69.9911 113.156 68.4271 112.845C66.8631 112.534 65.4265 111.766 64.299 110.639C63.1714 109.511 62.4035 108.074 62.0924 106.51C61.7814 104.946 61.941 103.325 62.5513 101.852C63.1615 100.379 64.1949 99.1197 65.5207 98.2338C66.8466 97.3479 68.4054 96.875 70 96.875C72.1383 96.875 74.1891 97.7244 75.7011 99.2365C77.2131 100.748 78.0625 102.799 78.0625 104.938ZM70 32.375C55.1785 32.375 43.125 43.2258 43.125 56.5625V59.25C43.125 60.6755 43.6913 62.0427 44.6993 63.0507C45.7073 64.0587 47.0745 64.625 48.5 64.625C49.9256 64.625 51.2927 64.0587 52.3007 63.0507C53.3087 62.0427 53.875 60.6755 53.875 59.25V56.5625C53.875 49.1719 61.1111 43.125 70 43.125C78.8889 43.125 86.125 49.1719 86.125 56.5625C86.125 63.9531 78.8889 70 70 70C68.5745 70 67.2073 70.5663 66.1993 71.5743C65.1913 72.5823 64.625 73.9495 64.625 75.375V80.75C64.625 82.1755 65.1913 83.5427 66.1993 84.5507C67.2073 85.5587 68.5745 86.125 70 86.125C71.4256 86.125 72.7927 85.5587 73.8007 84.5507C74.8087 83.5427 75.375 82.1755 75.375 80.75V80.2662C87.63 78.0155 96.875 68.2397 96.875 56.5625C96.875 43.2258 84.8216 32.375 70 32.375ZM139.875 70C139.875 83.82 135.777 97.3296 128.099 108.82C120.421 120.311 109.508 129.267 96.74 134.556C83.972 139.845 69.9225 141.229 56.3681 138.532C42.8137 135.836 30.3631 129.181 20.5909 119.409C10.8188 109.637 4.1638 97.1864 1.46766 83.6319C-1.22848 70.0775 0.155276 56.028 5.44395 43.26C10.7326 30.492 19.6887 19.579 31.1796 11.9011C42.6704 4.2231 56.1801 0.125 70 0.125C88.526 0.144564 106.288 7.51265 119.388 20.6125C132.487 33.7124 139.855 51.474 139.875 70ZM129.125 70C129.125 58.3062 125.657 46.875 119.161 37.1519C112.664 27.4289 103.43 19.8507 92.6262 15.3756C81.8225 10.9006 69.9344 9.72972 58.4653 12.0111C46.9962 14.2924 36.4611 19.9235 28.1923 28.1923C19.9236 36.4611 14.2925 46.9962 12.0111 58.4653C9.72975 69.9344 10.9006 81.8225 15.3757 92.6262C19.8507 103.43 27.4289 112.664 37.1519 119.161C46.875 125.657 58.3062 129.125 70 129.125C85.6755 129.107 100.704 122.872 111.788 111.788C122.872 100.704 129.107 85.6755 129.125 70Z" fill="#A8151C"/>
</svg>
