<svg width="50" height="50" viewBox="0 0 50 50" fill="none" xmlns="http://www.w3.org/2000/svg">
<path d="M7.4914 11.6595L7.49122 11.6597C5.65028 13.5066 4.60421 16.0074 4.5838 18.6214C4.56343 21.2306 5.564 23.7416 7.36707 25.6151L25.0103 43.3224L42.6512 25.6149C44.4548 23.731 45.4492 21.2081 45.416 18.5911C45.3827 15.9671 44.319 13.4643 42.4591 11.6259C40.5996 9.78784 38.0944 8.76238 35.4886 8.76938C32.883 8.77639 30.3835 9.81513 28.5338 11.6629C28.5336 11.6631 28.5334 11.6632 28.5333 11.6634M7.4914 11.6595L28.5333 11.6634M7.4914 11.6595C9.34898 9.79544 11.8661 8.75 14.4886 8.75C17.1112 8.75 19.6282 9.79544 21.4858 11.6595L21.4888 11.6624C21.9661 12.1399 22.5698 12.7233 23.2949 13.4091L25.0147 15.0357L26.7327 13.4071C27.4553 12.7221 28.057 12.1397 28.5333 11.6634M7.4914 11.6595L28.5333 11.6634" stroke="#ED1E28" stroke-width="5"/>
</svg>
