<svg width="24" height="24" viewBox="0 0 24 24" fill="none" xmlns="http://www.w3.org/2000/svg">
<path d="M3.44444 10C2.1 10 1 11.125 1 12.5C1 13.875 2.1 15 3.44444 15C4.78889 15 5.88889 13.875 5.88889 12.5C5.88889 11.125 4.78889 10 3.44444 10ZM20.5556 10C19.2111 10 18.1111 11.125 18.1111 12.5C18.1111 13.875 19.2111 15 20.5556 15C21.9 15 23 13.875 23 12.5C23 11.125 21.9 10 20.5556 10ZM12 10C10.6556 10 9.55556 11.125 9.55556 12.5C9.55556 13.875 10.6556 15 12 15C13.3444 15 14.4444 13.875 14.4444 12.5C14.4444 11.125 13.3444 10 12 10Z" fill="white"/>
</svg>
