<svg width="24" height="24" viewBox="0 0 24 24" fill="none" xmlns="http://www.w3.org/2000/svg">
<g clip-path="url(#clip0_945_658)">
<path fill-rule="evenodd" clip-rule="evenodd" d="M18.2904 10.3545C18.7448 10.7873 19 11.374 19 11.9857C19 12.5975 18.7448 13.1842 18.2904 13.617L9.14183 22.3242C8.68667 22.7571 8.06943 23.0001 7.42589 23C6.78235 22.9999 6.16523 22.7565 5.71029 22.3234C5.25535 21.8904 4.99985 21.3031 5 20.6909C5.00015 20.0786 5.25594 19.4915 5.7111 19.0586L13.1451 11.9857L5.7111 4.91284C5.26892 4.47767 5.02407 3.89468 5.0293 3.28942C5.03452 2.68417 5.2894 2.10508 5.73904 1.67688C6.18868 1.24868 6.79709 1.00564 7.43325 1.0001C8.06941 0.994554 8.6824 1.22696 9.14021 1.64725L18.2921 10.3529L18.2904 10.3545Z" fill="white"/>
</g>
<defs>
<clipPath id="clip0_945_658">
<rect width="24" height="24" fill="white"/>
</clipPath>
</defs>
</svg>
