<svg width="24" height="24" viewBox="0 0 24 24" fill="none" xmlns="http://www.w3.org/2000/svg">
<g clip-path="url(#clip0_945_149)">
<path fill-rule="evenodd" clip-rule="evenodd" d="M6.60681 13.613C6.21825 13.1813 6 12.5961 6 11.986C6 11.3758 6.21825 10.7906 6.60681 10.3589L14.4306 1.67405C14.8198 1.24232 15.3477 0.999856 15.898 1C16.1705 1.00007 16.4403 1.0597 16.6921 1.17549C16.9438 1.29127 17.1725 1.46094 17.3652 1.67481C17.5578 1.88868 17.7106 2.14257 17.8148 2.42196C17.9191 2.70136 17.9727 3.0008 17.9726 3.30319C17.9725 3.60558 17.9188 3.90499 17.8145 4.18433C17.7101 4.46368 17.5572 4.71748 17.3645 4.93125L11.0084 11.986L17.3659 19.0407C17.5641 19.253 17.7223 19.507 17.8312 19.7878C17.94 20.0687 17.9974 20.3707 17.9999 20.6765C18.0024 20.9822 17.9501 21.2854 17.8459 21.5684C17.7417 21.8514 17.5877 22.1086 17.393 22.3249C17.1982 22.5411 16.9667 22.7122 16.7117 22.8281C16.4568 22.944 16.1836 23.0024 15.9081 22.9999C15.6326 22.9974 15.3603 22.934 15.1071 22.8135C14.8539 22.693 14.6248 22.5177 14.4333 22.2979L6.60405 13.613H6.60681Z" fill="white"/>
</g>
<defs>
<clipPath id="clip0_945_149">
<rect width="24" height="24" fill="white"/>
</clipPath>
</defs>
</svg>
