<svg width="24" height="24" viewBox="0 0 24 24" fill="none" xmlns="http://www.w3.org/2000/svg">
<g clip-path="url(#clip0_921_91)">
<path d="M12 0C5.37188 0 0 5.37188 0 12C0 18.6281 5.37188 24 12 24C18.6281 24 24 18.6281 24 12C24 5.37188 18.6281 0 12 0ZM18.9984 12.9984C18.9984 13.5516 18.5531 13.9969 18 13.9969H14.0016V18C14.0016 18.5531 13.5562 18.9984 13.0031 18.9984H11.0016C10.4484 18.9984 10.0031 18.5484 10.0031 18V14.0016H6C5.44688 14.0016 5.00156 13.5516 5.00156 13.0031V11.0016C5.00156 10.4484 5.44688 10.0031 6 10.0031H9.99844V6C9.99844 5.44688 10.4438 5.00156 10.9969 5.00156H12.9984C13.5516 5.00156 13.9969 5.45156 13.9969 6V9.99844H18C18.5531 9.99844 18.9984 10.4484 18.9984 10.9969V12.9984Z" fill="white"/>
</g>
<defs>
<clipPath id="clip0_921_91">
<rect width="24" height="24" fill="white"/>
</clipPath>
</defs>
</svg>
