<svg width="37" height="33" viewBox="0 0 37 33" fill="none" xmlns="http://www.w3.org/2000/svg">
<path d="M18.4997 26.3542C20.7393 26.3542 22.6432 25.5706 24.2115 24.0035C25.7798 22.4364 26.5634 20.5324 26.5622 18.2917C26.561 16.0509 25.7774 14.1475 24.2115 12.5816C22.6456 11.0157 20.7416 10.2316 18.4997 10.2292C16.2577 10.2268 14.3544 11.0109 12.7896 12.5816C11.2249 14.1523 10.4408 16.0557 10.4372 18.2917C10.4336 20.5277 11.2177 22.4316 12.7896 24.0035C14.3615 25.5754 16.2649 26.3589 18.4997 26.3542ZM18.4997 22.7708C17.2455 22.7708 16.1854 22.3378 15.3195 21.4719C14.4535 20.6059 14.0205 19.5458 14.0205 18.2917C14.0205 17.0375 14.4535 15.9774 15.3195 15.1115C16.1854 14.2455 17.2455 13.8125 18.4997 13.8125C19.7538 13.8125 20.8139 14.2455 21.6799 15.1115C22.5459 15.9774 22.9788 17.0375 22.9788 18.2917C22.9788 19.5458 22.5459 20.6059 21.6799 21.4719C20.8139 22.3378 19.7538 22.7708 18.4997 22.7708ZM4.16634 32.625C3.18092 32.625 2.33765 32.2744 1.63651 31.5733C0.935369 30.8722 0.584202 30.0283 0.583008 29.0417V7.54167C0.583008 6.55625 0.934175 5.71297 1.63651 5.01183C2.33884 4.31069 3.18212 3.95953 4.16634 3.95833H9.81009L13.1247 0.375H23.8747L27.1893 3.95833H32.833C33.8184 3.95833 34.6623 4.3095 35.3646 5.01183C36.067 5.71417 36.4175 6.55744 36.4163 7.54167V29.0417C36.4163 30.0271 36.0658 30.871 35.3646 31.5733C34.6635 32.2756 33.8196 32.6262 32.833 32.625H4.16634Z" fill="#A8151C"/>
</svg>
