<svg width="24" height="24" viewBox="0 0 24 24" fill="none" xmlns="http://www.w3.org/2000/svg">
<path d="M1.00001 7.74471H23V2.85189C23 2.63892 22.912 2.44392 22.736 2.26691C22.56 2.08989 22.3661 2.00092 22.1544 2H1.84563C1.6348 2 1.44092 2.08851 1.26401 2.26552C1.08709 2.44254 0.99909 2.63753 1.00001 2.8505V7.74471ZM1.00001 14.8723H23V9.12764H1.00001V14.8723ZM1.84563 22H22.1544C22.3652 22 22.5591 21.911 22.736 21.7331C22.9129 21.5551 23.0009 21.3602 23 21.1481V16.2553H1.00001V21.1495C1.00001 21.3615 1.08801 21.5565 1.26401 21.7345C1.44001 21.9124 1.63388 22.0009 1.84563 22ZM3.43376 5.98976V3.75633H5.65438V5.98976H3.43376ZM3.43376 13.1174V10.8826H5.65438V13.1174H3.43376ZM3.43376 20.245V18.0102H5.65438V20.245H3.43376Z" fill="white"/>
</svg>
