<svg width="24" height="24" viewBox="0 0 24 24" fill="none" xmlns="http://www.w3.org/2000/svg">
<path fill-rule="evenodd" clip-rule="evenodd" d="M2.74579 4.74949C3.86212 3.62929 5.37597 3 6.95446 3C8.53294 3 10.0468 3.62929 11.1631 4.74949C11.3814 4.96779 11.6624 5.23947 12.006 5.56453C12.3489 5.23947 12.6295 4.96779 12.8478 4.74949C13.9594 3.63889 15.4628 3.01352 17.0312 3.00931C18.5996 3.00509 20.1063 3.62236 21.2239 4.72698C22.3414 5.83159 22.9795 7.33429 22.9995 8.9085C23.0195 10.4827 22.4197 12.0012 21.3306 13.1341L12.8466 21.6501C12.6233 21.8741 12.3205 22 12.0048 22C11.6892 22 11.3864 21.8741 11.1631 21.6501L2.67912 13.1353C1.59099 12.0088 0.987931 10.4979 1.00018 8.92891C1.01243 7.35991 1.6402 5.8587 2.74579 4.74949Z" fill="white"/>
</svg>
