<svg width="26" height="26" viewBox="0 0 26 26" fill="none" xmlns="http://www.w3.org/2000/svg">
<path d="M0.25 25.75V19.7292L18.95 1.06458C19.2333 0.804861 19.5464 0.604167 19.8893 0.4625C20.2321 0.320833 20.5919 0.25 20.9688 0.25C21.3456 0.25 21.7116 0.320833 22.0667 0.4625C22.4218 0.604167 22.7287 0.816667 22.9875 1.1L24.9354 3.08333C25.2188 3.34306 25.4256 3.65 25.5559 4.00417C25.6863 4.35833 25.7509 4.7125 25.75 5.06667C25.75 5.44444 25.6853 5.80475 25.5559 6.14758C25.4265 6.49042 25.2197 6.80303 24.9354 7.08542L6.27083 25.75H0.25ZM20.9333 7.05L22.9167 5.06667L20.9333 3.08333L18.95 5.06667L20.9333 7.05Z" fill="#A8151C"/>
</svg>
